# This file uses centimeters as units for non-parametric coordinates.

mtllib pole.mtl
g default
v 65.000000 0.665740 -0.216312
v 65.000000 0.566312 -0.411450
v 65.000000 0.411450 -0.566312
v 65.000000 0.216312 -0.665740
v 65.000000 0.000000 -0.700000
v 65.000000 -0.216312 -0.665740
v 65.000000 -0.411450 -0.566312
v 65.000000 -0.566312 -0.411450
v 65.000000 -0.665740 -0.216312
v 65.000000 -0.700000 0.000000
v 65.000000 -0.665740 0.216312
v 65.000000 -0.566312 0.411450
v 65.000000 -0.411450 0.566312
v 65.000000 -0.216312 0.665740
v 65.000000 -0.000000 0.700000
v 65.000000 0.216312 0.665740
v 65.000000 0.411450 0.566312
v 65.000000 0.566312 0.411450
v 65.000000 0.665740 0.216312
v 65.000000 0.700000 0.000000
v -65.000000 1.261520 -0.401799
v -65.000000 1.073113 -0.764268
v -65.000000 0.779662 -1.051924
v -65.000000 0.409893 -1.236612
v -65.000000 0.000000 -1.300250
v -65.000000 -0.409892 -1.236612
v -65.000000 -0.779662 -1.051924
v -65.000000 -1.073112 -0.764267
v -65.000000 -1.261519 -0.401799
v -65.000000 -1.326439 0.000000
v -65.000000 -1.261519 0.401799
v -65.000000 -1.073112 0.764268
v -65.000000 -0.779662 1.051924
v -65.000000 -0.409892 1.236612
v -65.000000 0.000000 1.300250
v -65.000000 0.409892 1.236612
v -65.000000 0.779662 1.051924
v -65.000000 1.073112 0.764268
v -65.000000 1.261519 0.401799
v -65.000000 1.326439 0.000000
v 65.000000 0.000000 0.000000
v -65.000000 0.000000 0.000000
v -44.971161 1.261520 -0.401799
v -44.971161 1.326439 0.000000
v -44.971161 1.261519 0.401799
v -44.971161 1.073112 0.764268
v -44.971161 0.779662 1.051924
v -44.971161 0.409892 1.236612
v -44.971161 0.000000 1.300250
v -44.971161 -0.409892 1.236612
v -44.971161 -0.779662 1.051924
v -44.971161 -1.073112 0.764268
v -44.971161 -1.261519 0.401799
v -44.971161 -1.326439 0.000000
v -44.971161 -1.261519 -0.401799
v -44.971161 -1.073112 -0.764267
v -44.971161 -0.779662 -1.051924
v -44.971161 -0.409892 -1.236612
v -44.971161 0.000000 -1.300250
v -44.971161 0.409893 -1.236612
v -44.971161 0.779662 -1.051924
v -44.971161 1.073113 -0.764268
v -44.701963 1.045458 -0.336008
v -44.701963 1.099259 0.000000
v -44.701963 1.045458 0.336008
v -44.701963 0.889320 0.639124
v -44.701963 0.646128 0.879679
v -44.701963 0.339690 1.034125
v -44.701963 0.000000 1.087343
v -44.701963 -0.339690 1.034125
v -44.701963 -0.646129 0.879679
v -44.701963 -0.889320 0.639125
v -44.701963 -1.045458 0.336008
v -44.701963 -1.099259 0.000000
v -44.701963 -1.045458 -0.336008
v -44.701963 -0.889320 -0.639124
v -44.701963 -0.646129 -0.879680
v -44.701963 -0.339690 -1.034126
v -44.701963 0.000000 -1.087344
v -44.701963 0.339690 -1.034126
v -44.701963 0.646129 -0.879680
v -44.701963 0.889320 -0.639125
v -44.373635 0.940913 -0.317210
v -44.373635 0.989333 0.000000
v -44.373635 0.940912 0.317210
v -44.373635 0.800387 0.603369
v -44.373635 0.581515 0.830467
v -44.373635 0.305721 0.976272
v -44.373635 0.000000 1.026513
v -44.373635 -0.305721 0.976272
v -44.373635 -0.581515 0.830467
v -44.373635 -0.800387 0.603369
v -44.373635 -0.940912 0.317210
v -44.373635 -0.989333 0.000000
v -44.373635 -0.940912 -0.317210
v -44.373635 -0.800388 -0.603369
v -44.373635 -0.581516 -0.830467
v -44.373635 -0.305721 -0.976272
v -44.373635 0.000000 -1.026514
v -44.373635 0.305721 -0.976272
v -44.373635 0.581516 -0.830467
v -44.373635 0.800388 -0.603369
vt 0.648603 0.107966
vt 0.626409 0.064408
vt 0.591842 0.029841
vt 0.548284 0.007647
vt 0.500000 -0.000000
vt 0.451716 0.007647
vt 0.408159 0.029841
vt 0.373591 0.064409
vt 0.351397 0.107966
vt 0.343750 0.156250
vt 0.351397 0.204534
vt 0.373591 0.248091
vt 0.408159 0.282659
vt 0.451716 0.304853
vt 0.500000 0.312500
vt 0.548284 0.304853
vt 0.591841 0.282659
vt 0.626409 0.248091
vt 0.648603 0.204534
vt 0.656250 0.156250
vt 0.375000 0.312500
vt 0.387500 0.312500
vt 0.400000 0.312500
vt 0.412500 0.312500
vt 0.425000 0.312500
vt 0.437500 0.312500
vt 0.450000 0.312500
vt 0.462500 0.312500
vt 0.475000 0.312500
vt 0.487500 0.312500
vt 0.500000 0.312500
vt 0.512500 0.312500
vt 0.525000 0.312500
vt 0.537500 0.312500
vt 0.550000 0.312500
vt 0.562500 0.312500
vt 0.575000 0.312500
vt 0.587500 0.312500
vt 0.600000 0.312500
vt 0.612500 0.312500
vt 0.625000 0.312500
vt 0.375000 0.687500
vt 0.387500 0.687500
vt 0.400000 0.687500
vt 0.412500 0.687500
vt 0.425000 0.687500
vt 0.437500 0.687500
vt 0.450000 0.687500
vt 0.462500 0.687500
vt 0.475000 0.687500
vt 0.487500 0.687500
vt 0.500000 0.687500
vt 0.512500 0.687500
vt 0.525000 0.687500
vt 0.537500 0.687500
vt 0.550000 0.687500
vt 0.562500 0.687500
vt 0.575000 0.687500
vt 0.587500 0.687500
vt 0.600000 0.687500
vt 0.612500 0.687500
vt 0.625000 0.687500
vt 0.648603 0.795466
vt 0.626409 0.751908
vt 0.591842 0.717341
vt 0.548284 0.695147
vt 0.500000 0.687500
vt 0.451716 0.695147
vt 0.408159 0.717341
vt 0.373591 0.751909
vt 0.351397 0.795466
vt 0.343750 0.843750
vt 0.351397 0.892034
vt 0.373591 0.935591
vt 0.408159 0.970159
vt 0.451716 0.992353
vt 0.500000 1.000000
vt 0.548284 0.992353
vt 0.591841 0.970159
vt 0.626409 0.935591
vt 0.648603 0.892034
vt 0.656250 0.843750
vt 0.500000 0.156250
vt 0.500000 0.843750
vt 0.625000 0.629725
vt 0.375000 0.629725
vt 0.612500 0.629725
vt 0.600000 0.629725
vt 0.587500 0.629725
vt 0.575000 0.629725
vt 0.562500 0.629725
vt 0.550000 0.629725
vt 0.537500 0.629725
vt 0.525000 0.629725
vt 0.512500 0.629725
vt 0.500000 0.629725
vt 0.487500 0.629725
vt 0.475000 0.629725
vt 0.462500 0.629725
vt 0.450000 0.629725
vt 0.437500 0.629725
vt 0.425000 0.629725
vt 0.412500 0.629725
vt 0.400000 0.629725
vt 0.387500 0.629725
vt 0.625000 0.628569
vt 0.375000 0.628569
vt 0.612500 0.628569
vt 0.600000 0.628569
vt 0.587500 0.628569
vt 0.575000 0.628569
vt 0.562500 0.628569
vt 0.550000 0.628569
vt 0.537500 0.628569
vt 0.525000 0.628569
vt 0.512500 0.628569
vt 0.500000 0.628569
vt 0.487500 0.628569
vt 0.475000 0.628569
vt 0.462500 0.628569
vt 0.450000 0.628569
vt 0.437500 0.628569
vt 0.425000 0.628569
vt 0.412500 0.628569
vt 0.400000 0.628569
vt 0.387500 0.628569
vt 0.625000 0.627242
vt 0.375000 0.627242
vt 0.612500 0.627242
vt 0.600000 0.627242
vt 0.587500 0.627242
vt 0.575000 0.627242
vt 0.562500 0.627242
vt 0.550000 0.627242
vt 0.537500 0.627242
vt 0.525000 0.627242
vt 0.512500 0.627242
vt 0.500000 0.627242
vt 0.487500 0.627242
vt 0.475000 0.627242
vt 0.462500 0.627242
vt 0.450000 0.627242
vt 0.437500 0.627242
vt 0.425000 0.627242
vt 0.412500 0.627242
vt 0.400000 0.627242
vt 0.387500 0.627242
vn 0.002682 0.953254 -0.302157
vn 0.002763 0.815847 -0.578261
vn 0.003908 0.813876 -0.581026
vn 0.003975 0.952624 -0.304123
vn 0.002863 0.597292 -0.802019
vn 0.003831 0.594502 -0.804085
vn 0.002946 0.315987 -0.948759
vn 0.003776 0.313907 -0.949446
vn 0.002978 -0.000000 -0.999996
vn 0.003759 -0.000000 -0.999993
vn 0.002946 -0.315987 -0.948759
vn 0.003776 -0.313907 -0.949446
vn 0.002863 -0.597292 -0.802019
vn 0.003831 -0.594502 -0.804085
vn 0.002763 -0.815848 -0.578261
vn 0.003908 -0.813876 -0.581026
vn 0.002682 -0.953254 -0.302158
vn 0.003975 -0.952624 -0.304124
vn 0.002652 -0.999996 0.000000
vn 0.004001 -0.999992 -0.000000
vn 0.002682 -0.953254 0.302158
vn 0.003975 -0.952624 0.304124
vn 0.002763 -0.815847 0.578261
vn 0.003908 -0.813876 0.581026
vn 0.002863 -0.597292 0.802019
vn 0.003831 -0.594502 0.804085
vn 0.002946 -0.315987 0.948759
vn 0.003776 -0.313907 0.949446
vn 0.002978 0.000000 0.999996
vn 0.003759 -0.000000 0.999993
vn 0.002946 0.315987 0.948759
vn 0.003776 0.313907 0.949446
vn 0.002863 0.597292 0.802019
vn 0.003831 0.594502 0.804085
vn 0.002763 0.815847 0.578261
vn 0.003908 0.813876 0.581026
vn 0.002682 0.953254 0.302158
vn 0.003975 0.952624 0.304124
vn 0.002652 0.999996 0.000001
vn 0.004001 0.999992 0.000001
vn 1.000000 0.000000 0.000000
vn 1.000000 0.000000 0.000000
vn 1.000000 0.000000 0.000000
vn 1.000000 0.000000 0.000000
vn 1.000000 0.000000 0.000000
vn 1.000000 0.000000 0.000000
vn 1.000000 0.000000 0.000000
vn 1.000000 0.000000 0.000000
vn 1.000000 0.000000 0.000000
vn 1.000000 0.000000 0.000000
vn 1.000000 0.000000 0.000000
vn 1.000000 0.000000 0.000000
vn 1.000000 0.000000 0.000000
vn 1.000000 0.000000 0.000000
vn 1.000000 0.000000 0.000000
vn 1.000000 0.000000 0.000000
vn 1.000000 0.000000 0.000000
vn 1.000000 0.000000 0.000000
vn 1.000000 0.000000 0.000000
vn 1.000000 0.000000 0.000000
vn 1.000000 0.000000 0.000000
vn -1.000000 0.000000 0.000000
vn -1.000000 0.000000 0.000000
vn -1.000000 0.000000 0.000000
vn -1.000000 0.000000 0.000000
vn -1.000000 0.000000 0.000000
vn -1.000000 0.000000 0.000000
vn -1.000000 0.000000 0.000000
vn -1.000000 0.000000 0.000000
vn -1.000000 0.000000 0.000000
vn -1.000000 0.000000 0.000000
vn -1.000000 0.000000 0.000000
vn -1.000000 0.000000 0.000000
vn -1.000000 0.000000 0.000000
vn -1.000000 0.000000 0.000000
vn -1.000000 0.000000 0.000000
vn -1.000000 0.000000 0.000002
vn -1.000000 0.000000 0.000002
vn -1.000000 0.000000 0.000000
vn -1.000000 0.000000 0.000000
vn -1.000000 0.000000 0.000000
vn -1.000000 0.000000 0.000000
vn 0.009238 0.999957 0.000001
vn 0.009185 0.949188 -0.314575
vn 0.000000 0.949215 -0.314630
vn 0.000000 1.000000 0.000001
vn 0.009185 0.949188 0.314576
vn 0.000000 0.949214 0.314630
vn 0.009045 0.803399 0.595372
vn 0.000000 0.803390 0.595453
vn 0.008873 0.580146 0.814464
vn 0.000000 0.580112 0.814537
vn 0.008734 0.303513 0.952787
vn 0.000000 0.303483 0.952837
vn 0.008681 -0.000000 0.999962
vn 0.000000 -0.000000 1.000000
vn 0.008734 -0.303513 0.952787
vn 0.000000 -0.303483 0.952837
vn 0.008873 -0.580146 0.814464
vn 0.000000 -0.580111 0.814537
vn 0.009045 -0.803399 0.595372
vn 0.000000 -0.803390 0.595453
vn 0.009185 -0.949188 0.314576
vn 0.000000 -0.949214 0.314630
vn 0.009238 -0.999957 0.000000
vn 0.000000 -1.000000 0.000000
vn 0.009185 -0.949188 -0.314576
vn -0.000000 -0.949214 -0.314630
vn 0.009045 -0.803399 -0.595372
vn -0.000000 -0.803390 -0.595453
vn 0.008873 -0.580147 -0.814464
vn -0.000000 -0.580112 -0.814537
vn 0.008734 -0.303513 -0.952787
vn -0.000000 -0.303483 -0.952837
vn 0.008681 -0.000000 -0.999962
vn 0.000000 -0.000000 -1.000000
vn 0.008734 0.303513 -0.952787
vn 0.000000 0.303483 -0.952837
vn 0.008873 0.580147 -0.814464
vn 0.000000 0.580112 -0.814537
vn 0.009045 0.803399 -0.595373
vn 0.000000 0.803390 -0.595454
vn 0.516451 0.856317 0.000000
vn 0.511376 0.818699 -0.261202
vn 0.511375 0.818699 0.261204
vn 0.497574 0.706800 0.502845
vn 0.479268 0.524610 0.703624
vn 0.463058 0.281930 0.840293
vn 0.456386 0.000000 0.889782
vn 0.463059 -0.281931 0.840292
vn 0.479269 -0.524610 0.703623
vn 0.497574 -0.706800 0.502845
vn 0.511376 -0.818698 0.261205
vn 0.516452 -0.856316 0.000002
vn 0.511376 -0.818699 -0.261201
vn 0.497575 -0.706802 -0.502843
vn 0.479269 -0.524611 -0.703623
vn 0.463061 -0.281932 -0.840291
vn 0.456387 0.000000 -0.889781
vn 0.463059 0.281930 -0.840293
vn 0.479269 0.524611 -0.703623
vn 0.497574 0.706800 -0.502845
s 1
g pCylinder1
usemtl initialShadingGroup
f 1/21/1 2/22/2 102/147/3 83/128/4
f 2/22/2 3/23/5 101/146/6 102/147/3
f 3/23/5 4/24/7 100/145/8 101/146/6
f 4/24/7 5/25/9 99/144/10 100/145/8
f 5/25/9 6/26/11 98/143/12 99/144/10
f 6/26/11 7/27/13 97/142/14 98/143/12
f 7/27/13 8/28/15 96/141/16 97/142/14
f 8/28/15 9/29/17 95/140/18 96/141/16
f 9/29/17 10/30/19 94/139/20 95/140/18
f 10/30/19 11/31/21 93/138/22 94/139/20
f 11/31/21 12/32/23 92/137/24 93/138/22
f 12/32/23 13/33/25 91/136/26 92/137/24
f 13/33/25 14/34/27 90/135/28 91/136/26
f 14/34/27 15/35/29 89/134/30 90/135/28
f 15/35/29 16/36/31 88/133/32 89/134/30
f 16/36/31 17/37/33 87/132/34 88/133/32
f 17/37/33 18/38/35 86/131/36 87/132/34
f 18/38/35 19/39/37 85/130/38 86/131/36
f 19/39/37 20/40/39 84/129/40 85/130/38
f 20/40/39 1/41/1 83/127/4 84/129/40
s 2
f 2/2/41 1/1/42 41/83/43
f 3/3/44 2/2/41 41/83/43
f 4/4/45 3/3/44 41/83/43
f 5/5/46 4/4/45 41/83/43
f 6/6/47 5/5/46 41/83/43
f 7/7/48 6/6/47 41/83/43
f 8/8/49 7/7/48 41/83/43
f 9/9/50 8/8/49 41/83/43
f 10/10/51 9/9/50 41/83/43
f 11/11/52 10/10/51 41/83/43
f 12/12/53 11/11/52 41/83/43
f 13/13/54 12/12/53 41/83/43
f 14/14/55 13/13/54 41/83/43
f 15/15/56 14/14/55 41/83/43
f 16/16/57 15/15/56 41/83/43
f 17/17/58 16/16/57 41/83/43
f 18/18/59 17/17/58 41/83/43
f 19/19/60 18/18/59 41/83/43
f 20/20/61 19/19/60 41/83/43
f 1/1/42 20/20/61 41/83/43
s 3
f 21/81/62 22/80/63 42/84/64
f 22/80/63 23/79/65 42/84/64
f 23/79/65 24/78/66 42/84/64
f 24/78/66 25/77/67 42/84/64
f 25/77/67 26/76/68 42/84/64
f 26/76/68 27/75/69 42/84/64
f 27/75/69 28/74/70 42/84/64
f 28/74/70 29/73/71 42/84/64
f 29/73/71 30/72/72 42/84/64
f 30/72/72 31/71/73 42/84/64
f 31/71/73 32/70/74 42/84/64
f 32/70/74 33/69/75 42/84/64
f 33/69/75 34/68/76 42/84/64
f 34/68/76 35/67/77 42/84/64
f 35/67/77 36/66/78 42/84/64
f 36/66/78 37/65/79 42/84/64
f 37/65/79 38/64/80 42/84/64
f 38/64/80 39/63/81 42/84/64
f 39/63/81 40/82/82 42/84/64
f 40/82/82 21/81/62 42/84/64
s 1
f 44/87/83 43/85/84 21/62/85 40/61/86
f 45/88/87 44/87/83 40/61/86 39/60/88
f 46/89/89 45/88/87 39/60/88 38/59/90
f 47/90/91 46/89/89 38/59/90 37/58/92
f 48/91/93 47/90/91 37/58/92 36/57/94
f 49/92/95 48/91/93 36/57/94 35/56/96
f 50/93/97 49/92/95 35/56/96 34/55/98
f 51/94/99 50/93/97 34/55/98 33/54/100
f 52/95/101 51/94/99 33/54/100 32/53/102
f 53/96/103 52/95/101 32/53/102 31/52/104
f 54/97/105 53/96/103 31/52/104 30/51/106
f 55/98/107 54/97/105 30/51/106 29/50/108
f 56/99/109 55/98/107 29/50/108 28/49/110
f 57/100/111 56/99/109 28/49/110 27/48/112
f 58/101/113 57/100/111 27/48/112 26/47/114
f 59/102/115 58/101/113 26/47/114 25/46/116
f 60/103/117 59/102/115 25/46/116 24/45/118
f 61/104/119 60/103/117 24/45/118 23/44/120
f 62/105/121 61/104/119 23/44/120 22/43/122
f 43/86/84 62/105/121 22/43/122 21/42/85
f 64/108/123 63/106/124 43/85/84 44/87/83
f 65/109/125 64/108/123 44/87/83 45/88/87
f 66/110/126 65/109/125 45/88/87 46/89/89
f 67/111/127 66/110/126 46/89/89 47/90/91
f 68/112/128 67/111/127 47/90/91 48/91/93
f 69/113/129 68/112/128 48/91/93 49/92/95
f 70/114/130 69/113/129 49/92/95 50/93/97
f 71/115/131 70/114/130 50/93/97 51/94/99
f 72/116/132 71/115/131 51/94/99 52/95/101
f 73/117/133 72/116/132 52/95/101 53/96/103
f 74/118/134 73/117/133 53/96/103 54/97/105
f 75/119/135 74/118/134 54/97/105 55/98/107
f 76/120/136 75/119/135 55/98/107 56/99/109
f 77/121/137 76/120/136 56/99/109 57/100/111
f 78/122/138 77/121/137 57/100/111 58/101/113
f 79/123/139 78/122/138 58/101/113 59/102/115
f 80/124/140 79/123/139 59/102/115 60/103/117
f 81/125/141 80/124/140 60/103/117 61/104/119
f 82/126/142 81/125/141 61/104/119 62/105/121
f 63/107/124 82/126/142 62/105/121 43/86/84
f 84/129/40 83/127/4 63/106/124 64/108/123
f 85/130/38 84/129/40 64/108/123 65/109/125
f 86/131/36 85/130/38 65/109/125 66/110/126
f 87/132/34 86/131/36 66/110/126 67/111/127
f 88/133/32 87/132/34 67/111/127 68/112/128
f 89/134/30 88/133/32 68/112/128 69/113/129
f 90/135/28 89/134/30 69/113/129 70/114/130
f 91/136/26 90/135/28 70/114/130 71/115/131
f 92/137/24 91/136/26 71/115/131 72/116/132
f 93/138/22 92/137/24 72/116/132 73/117/133
f 94/139/20 93/138/22 73/117/133 74/118/134
f 95/140/18 94/139/20 74/118/134 75/119/135
f 96/141/16 95/140/18 75/119/135 76/120/136
f 97/142/14 96/141/16 76/120/136 77/121/137
f 98/143/12 97/142/14 77/121/137 78/122/138
f 99/144/10 98/143/12 78/122/138 79/123/139
f 100/145/8 99/144/10 79/123/139 80/124/140
f 101/146/6 100/145/8 80/124/140 81/125/141
f 102/147/3 101/146/6 81/125/141 82/126/142
f 83/128/4 102/147/3 82/126/142 63/107/124
